<svg id="edVgmuc4QRq1" xmlns="http://www.w3.org/2000/svg" xmlns:xlink="http://www.w3.org/1999/xlink" viewBox="0 0 1067.27 928.49" shape-rendering="geometricPrecision" text-rendering="geometricPrecision"><g id="edVgmuc4QRq2" transform="translate(-1092.159302-.029999)"><path d="M883.51,282.55c-1.291397-2.220276-3.25635-3.971571-5.61-5-10.09-3.79-20.34-7.15-31.58-11-1.68,7.94-3.35,15.3-4.63,22.73-.15.83,1.78,2.57,3,3c6.28,2.13,12.69,3.88,19,5.93c1.393878.381615,2.623665,1.210842,3.5,2.36c7,11.93,34.5,60.24,39.31,69c.58,1.06,8.17,16.55,8.68,18.25c3,10.11-1.5,19.53-3.36,29.09-4.34,22.31-9.48,44.47-14.26,66.7-1.3,6.05-.28,7.35,5.83,9.12q10.74,3.13,21.35,6.72c3.54,1.19,5.77,1.13,6-3.44.196694-2.650955.679501-5.272865,1.44-7.82.89-3.36,2.06-6.66,3.39-10.85L925.18,474c.84-5.08,1.53-10.43,2.62-15.69c4.8-23.23,9.8-46.41,14.46-69.66.292528-2.568439-.258541-5.162326-1.57-7.39-7.26-12.95-46.9-81.21-57.18-98.71Z" transform="translate(1088.072499-90.62)"/><path d="M846.51,403.26c4.72,8.2,9.31,16.49,14.42,24.45c1,1.62,8.05,5.68,10.2,6.49c7.29,2.75,14.78,4.95,22.2,7.35c1.38.45,2.8.79,4.56,1.28c1.94-7.21,3.91-14,5.43-20.91.21-.94-1.62-3-2.9-3.49-6.06-2.26-12.32-4-18.38-6.27-1.990745-.723005-3.702187-2.05646-4.89-3.81-11.54-19.46-42.61-71-42.61-71-7.15-14.33-8-21.21-5-33.68c6.36-26.42,11.87-53,17.57-79.63.29-1.36-.55-4.1-1.48-4.42-10-3.46-20.16-6.56-31-10C813,217.49,811.3,224.71,810,232c-.14.72,1.61,2.32,2.74,2.65c6.37,1.84,6.81,2.37,5.47,8.87q-5.4,26.34-10.84,52.67c-1.55,7.48-3,15-4.79,22.39-1.013479,3.68072-.382463,7.620009,1.73,10.8c2,3.17,31.18,54.76,42.2,73.88Z" transform="translate(1088.072499-90.62)"/><path d="M1068.62,544.48q-33.63-58-67-116.13c-11.12-19.29-109.34-189.2-140-242.34q-26-44.92-51.63-90c-2.46-4.32-5.78-5.28-10.29-5.28-81.64.06-435.67.08-521.31-.08-5.95,0-9.3,2.1-12.24,7.25-22.64,39.74-113.42,197.25-131.87,229.22Q70.5,437.48,6.65,547.76c-3.49,6-3.46,10.79.36,16.45c4.33,6.42,77.88,134.16,108.86,187.7q75.94,131.26,151.67,262.66c2.12,3.66,4.3,4.52,8.63,4.54h522.25c4.68,0,4.71-1.42,7.11-5.43c0,0,76.35-127.43,110.35-187.29c22.51-39.61,46.2-78.55,69.21-117.88c11.41-19.52,22.67-39.13,33.61-58.92c9.16-16.56,44.6-80.16,48.42-86.37c5.42-8.82,5.32-12.17,1.5-18.74ZM789.45,165.29c.740828,1.798794.908456,3.782393.48,5.68-6.24,30.07-12.62,60.1-18.92,90.16-.57,2.74-.83,5.55-1.27,8.64l32,9.41c2-7.43,3.93-14.25,5.42-21.18.21-1-1.71-2.92-3-3.55-1.86-.87-4.1-.91-7.06-1.47c1.55-8.15,3-15.92,4.49-23.68c3.64-18.9,6.13-38.13,11.42-56.55c3.11-10.86-3.33-16.78-7-24.42-2.21-4.63-5.48-8.73-7.9-13.28-.69-1.3,0-3.31,0-5c1.91.46,4,.57,5.64,1.51c1.13.66,1.58,2.46,2.33,3.76c37.34,65,163.31,284.51,185.79,323.38q21.58,37.35,43.41,74.58c2,3.36,2.12,6.09-1.49,9.32-7.52-13.07-14.69-25.8-22.18-38.34-1.440386-2.519106-3.637698-4.52048-6.28-5.72-10.12-3.73-20.45-6.88-31.7-10.56l-4.38,24.21c7.49,2.4,14.31,4.38,20.95,6.84c2.174465.851169,4.027836,2.361842,5.3,4.32c3.8,6.22,7.17,12.71,11.07,19.75h-52.5c6.42-33.6,12.54-67.07,21.6-101.4L942,430.45c-1.82,8.75-3.42,16.45-5,23.83c1,.68,1.26,1,1.55,1c8.53,1.47,8.64,1.49,6.91,10q-7.47,37.1-15.11,74.16c-1,4.7-5.21,6.32-9,3.14-2.359554-2.091593-4.327043-4.587358-5.81-7.37-8.68-15.34-17.1-30.83-25.78-46.17s-118.68-204.39-132.86-229.04c-5.3-9.23-10.65-18.44-15.79-27.77-2.3-4.17,2.4-16.36,6.9-16.55s9.22,2,13.82,3.2c2.61.68,5.2,1.47,7.84,2.22c2.37-7.86,4.49-14.94,6.75-22.43l-16.69-5.1c7.16-14.09,13.88-27.75,22.61-40.58c2.77,4.69,5.21,8.36,7.11,12.3Zm97.62,367.08c3.45,6,6.93,11.9,10.58,17.73c2.18,3.48,2.09,6.38,0,10.07-33.17,57.3-159.92,277-176.83,305.48-1.476845,2.02021-3.764609,3.292002-6.26,3.48q-176.22.25-352.42.25c-4.19,0-6-2.25-7.65-5.17-9.11-15.87-18.11-31.8-27.26-47.63Q260.37,701,193.47,585.53c-5.17-8.92-10.85-17.55-15.57-26.69-1.2-2.34-.53-6.56.8-9.13c5.67-10.91,12-21.5,18-32.25q25-44.85,50-89.72c8.35-14.9,16.73-29.8,25.45-44.49c22.24-37.44,42.54-74.79,64.7-112.29c0,0,8.85-16.68,14.31-24.51c3.14-4.5,9.94-7.06,20.41-6.92c2.49,0,93.34.52,133.16.37c29.82-.11,59.64-.43,89.45-.36q59.72.15,119.42.92c2.47,0,6,1.73,7.19,3.75M306.09,112.62c1.150705-.189403,2.322609-.212975,3.48-.07q228.93,0,457.86-.09c4.64,0,7.13,1.59,8.29,6.6-2,.1-3.7.24-5.42.24-17,0-34-.11-51,.1-2.541054.110814-4.975564,1.052298-6.93,2.68-8,7-15.64,14.37-23.27,21.48L705.85,160c5-5.22,10.24-10.91,15.72-16.39c1.223414-1.269948,2.856158-2.066841,4.61-2.25c11.16-.13,22.33,0,33.49.15c1.057908.176527,2.089362.485628,3.07.92-.330481,1.139116-.74495,2.252166-1.24,3.33-7.1,12.41-14.16,24.84-21.38,37.18-4.17,7.12-12.92,8.15-18.93,2.38q-31.5-30.31-63-60.65c-1.78-1.71-3.69-3.3-6.31-5.63L629.33,144.4L645,159.25l6.84-7.8L680,178.91c8.34,8.15,16.75,16.23,25,24.48c4.81,4.81,9,10.69,17.92,7.47-1.6,5.1-3.72,7.46-8.32,7.46q-175.95-.07-351.89-.07c-1.468859.112373-2.941441-.163521-4.27-.8-1.673889-1.24525-3.224338-2.648356-4.63-4.19c1.5-1.07,3-2.16,4.51-3.21c1.153013-.636398,2.250243-1.368999,3.28-2.19c6.95-7,13.83-14,20.41-20.61l-14.75-16.4-14.87,14.21c-6,5.75-11.26,4.95-15.39-2-6.93-11.75-14.05-23.39-21.09-35.08-.92-1.53-1.8-3.1-2.87-5c8.3-4,16.63-2.26,24.8-2.39c9.08-.14,14.79,5.37,20.64,11.19c19.37,19.26,38.92,38.34,58.41,57.49.81.79,1.68,1.5,2.42,2.17c7.82-8.2,15.45-16.18,23.52-24.65L428,172.68l-8,6.07c-3.56-3.39-7.06-6.67-10.52-10q-23.37-22.56-46.68-45.16c-2.737508-2.936767-6.618232-4.535786-10.63-4.38-14.32.34-28.65.38-43,.52-2.47,0-4.93,0-7.62,0-1.07-4.45,1.34-6.12,4.54-7.11Zm-265,420.9q14.3-25.18,28.7-50.28q67.9-118,135.88-236.06c20.68-35.86,41.61-71.59,62.46-107.37c1.25-2.15,2.4-4.51,4.16-6.19s4.23-2.62,6.39-3.89c.47.51.95,1,1.43,1.52-.8,1.66-1.51,3.37-2.41,5-5.74,10.13-11.61,20.18-17.2,30.39-.902229,1.862382-1.199434,3.960299-.85,6c1.31,7.69,5.06,27.48,5.32,29.52c0,0,10,1.71,23.54-6.35-1.34-6.58-2.42-13.3-4.14-19.84-1.43-5.44-.89-9.95,3.11-14.16c2.35-2.45,4.07-5.5,6.35-8.67l24.38,43.43c0,0-90.27,29.43-92.68,30.26c2.33,11.53,4.62,22.87,6.86,33.94c6.62-2.28,12.76-4.1,18.59-6.61c1.32-.57,2.66-3.91,2.17-5.35-1.44-4.27.12-6.18,3.89-7.46c17.6-6,35.15-12,52.77-17.93c4-1.35,18.17-6.09,19.2-5.1c3.95,3.84,8.32,12.14,5.52,16.93-15,25.71-29.73,51.6-44.61,77.39Q227.73,420.48,165.47,528.29c-1.25,2.16-2.87,4.16-3.77,6.45-3.22,8.15-9.17,10.27-18,7.94-1.73-9.23-3.51-18.65-5.47-29.06-4.69,1.35-9.23,2.57-13.7,4-10.1,3.13-10.17,3.33-7.6,13.85.89,3.66,1.63,7.36,2.64,11.94h-50.34c2.21-4.19,4.82-8.2,6.5-12.56c2.15-5.58,6.24-7.94,11.59-9.72c28.5-9.48,56.88-19.31,85.37-28.8c4.36-1.46,5.5-3.3,4.46-7.89-2-8.87-3.23-17.91-4.93-27.75l-22.4,7.48c-.149528.475701-.253332.964582-.31,1.46.48,9.8.56,10.07-8.9,12.92-5.81,1.75-45.4,13.57-57.55,18.67-4.68,2-9.88,2.65-14.69,4.36-1.47.52-2.72,2.31-3.59,3.8-5.87,10.05-11.62,20.18-17.41,30.27-1.23,2.15-2.51,4.27-3.73,6.36-4.5-1.83-5.14-3.9-2.54-8.49Zm246.08,402c6.9-31.23,13-62.64,19.5-94.62L274.07,830c-1.72,8.58-3.32,16.57-4.95,24.68l10,2c-1.7,8.84-3.26,17.43-5,26-4,19.66-8.25,39.29-12.11,59-.344913,2.578884.14575,5.200425,1.4,7.48c4.6,8.47,9.61,16.73,14.44,25.08.79,1.37,1.42,2.83,2.35,4.71-6.7,1.43-9-3-11.22-6.87-13.38-23.18-26.55-46.49-39.91-69.7q-70.81-123-141.73-246c-12.38-21.45-25-42.8-37.42-64.2-3.52-6-7.24-12-10.23-18.24-.72-1.52,1-4.23,1.68-6.39c1.33,1,3.16,1.75,3.94,3.09c7.49,12.92,14.78,25.95,22.22,38.89.652352.886562,1.586869,1.524855,2.65,1.81c9.12,2.86,18.35,5.41,27.41,8.48c5.49,1.86,5.4,1.86,6.22-4s2.58-11.58,4-17.84c-6.75-2.23-13.24-4.71-19.91-6.44-4-1-6.66-3.85-9-7-2.43-3.35-7-12.69-9.32-18c1.18-.4,2.3-1.12,3.42-1.11c15,.21,30,.6,44.94.74c4,0,4.53,1.54,3.71,5.15-3.1,13.76-18.82,89.15-19.43,94.25-.17,1.48,1.18,4.2,2.42,4.62c5.46,1.84,11.12,3.1,16.73,4.49c3.66.9,7.36,1.67,11.6,2.62c1.11-3.81,3.19-9.94,6.57-20.28.43-1.32.48-2.39-.75-2.74-9.78-2.72-11.18-1.67-8.93-12.2c3.16-14.77,6.18-29.56,9.4-44.32q3-14,6.55-27.84c.42-1.64,2-4.27,2.95-4.24c2.6.08,5.83.65,7.59,2.31c2.58,2.45,4.21,5.94,6,9.11q53,91.83,105.94,183.7q32.88,57.06,65.83,114.1c2.61,4.48,2.66,8.08-.14,12.39-5.69,8.78-2.74,8.39-13.77,5-4.56-1.39-9.05-3-14.51-4.78-1.79,8.54-3.38,16.12-5.05,24.06l16,4.85c-7.47,13.12-14.59,25.66-22.28,39.19-4.16-7-9.08-11.61-7.19-20.13Zm480.38,60.76q-70,.4-139.94.5-142.18.3-284.38.5c-12.16,0-24.31-.68-36.46-1-3.21-.08-5.22-1.45-6.79-5.69c5.7-.49,10.72-1.35,15.72-1.26c12,.22,24,.79,35.93,1.43c4.06.21,7.14-.71,10.15-3.8c6.82-7,14.14-13.52,21.67-20.63L367,950.74c-5.34,4.91-10.27,9.79-15.6,14.2-2.094758,1.754303-4.678017,2.822516-7.4,3.06-9.92.34-19.85.14-30.26.14.353076-1.250934.797607-2.474228,1.33-3.66c7.23-13.08,14.35-26.23,21.82-39.18c3.15-5.46,9.51-5.21,13.83-.8C361,935,371.66,945,382.15,955.26c11.45,11.16,24.92,24.25,36.28,35.51l25.75-23.33L426.3,951l-6.56,6.79c-8.5-8-13.92-12.94-21-19.7-12.51-12-24.93-24-37.52-35.93-1.76-1.65-4.26-2.51-7-4.08-.79-4.76,4.39-8.79,11.08-7.58c2.252188.467899,4.540821.738921,6.84.81q155.68.18,311.38.28c9.66,0,19.32.1,29,.16c6.7,0,6.81.11,9.95,6.5-.69.33-1.55,1.12-2,.93-5.55-2.14-8.52,1.53-11.72,4.92-6.4,6.79-12.86,13.52-19.58,20.57l16,15.28c5.68-5.64,10.87-10.78,16-15.93s14.65-3.65,18.09,2.58c6,10.91,12.35,21.63,18.46,32.49c1.51,2.69,2.66,5.57,4.3,9-12.77,0-24.7.11-36.64-.13-1.45,0-3-1.75-4.29-3q-33.4-32.29-66.74-64.67c-.567083-.455086-1.172702-.859947-1.81-1.21l-24.29,23.05-.06-.14c-.17.27-.37.53-.52.77c4.59,3.68,8.63,8.14,13,12.16c1.45,1.33,2.93,2.63,4.39,3.95c6.92-7.39,6.91-7.38,14.59,0c17,16.42,34,32.88,51.17,49.14c1.962647,1.658719,4.43125,2.600315,7,2.67c17,.23,34,.1,51,.18c2.160086.143227,4.308198.430533,6.43.86.09.72.17,1.45.26,2.17-2.72.88-5.33,2.34-7.95,2.35Zm267.55-419.1q-22.5,38.85-44.86,77.77-90.9,157.79-181.88,315.59c-2.28,3.94-3.58,9.89-11.54,8.45.82-2.38,4.76-7.89,5.89-9.82c4.71-8,6.62-12.52,10.79-20.82c2.52-5,3.2-11,4.8-16.81l-5-25.72-26.46,6.6c1.48,6.79,2.85,13.54,4.43,20.24c1,4.35,1.18,8.32-1.82,12.17-2.29,3-3.93,6.43-6.53,10.8L758.5,913.79c8.12-2.75,15.44-5.27,22.78-7.71c21.88-7.29,43.78-14.5,65.62-21.92c1.413112-.72649,2.396801-2.081382,2.65-3.65-.037076-2.655835-.372514-5.29909-1-7.88-1.35-7.47-2.79-14.93-4.3-23-7,1.92-14.23,3.7-21.24,6.07-.94.32-1.72,4-1.12,5.52c1.91,4.83-.32,6.48-4.41,7.83q-33.57,11.05-67,22.41c-3,1-4.22.06-6.13-2.19-5.31-6.31-4.07-11.86-.23-18.48Q819.25,741.38,894,611.68c6.73-11.66,13.62-23.28,19.41-35.41c4-8.43,9.39-11.95,18.9-9.41l6,30.32c7-3,13.5-5.64,19.91-8.6c1.042332-.813866,1.615044-2.090303,1.53-3.41-.77-4.57-1.9-9.08-3-13.6-1-4,.77-6.27,4.67-6.2c14.63.29,29.26.82,43.88,1.29.26,0,.5.41,1.27,1.07-5.56,8.67-8.53,18.33-21.09,22-28.46,8.4-56.31,18.88-84.42,28.45-2.77.95-3.91,1.94-3,5.37c2.18,8.16,3.66,16.51,5.45,24.78.35,1.6.79,3.18,1.19,4.8l21.83-8.51c.109356-.522859.162989-1.055836.16-1.59-.57-8.83-.57-8.81,8.22-11.71c23.63-7.81,47.25-15.67,70.91-23.39c3.58-1.16,5.67-3.27,7.47-6.56c5.42-9.92,11.23-19.62,17-29.34c1.284182-1.863977,2.694127-3.638102,4.22-5.31c3.11,3.82,2.6,6.96.6,10.42Z" transform="translate(1088.0725-90.62)"/><path d="M628.43,965.65l27.32,26.23c7.18-8.61,14.32-17.15,21.85-26.17l-14.7-14-7.26,6.91-56.09-54.25c-7-5.41-8.48-6.67-12.76-6.84h-80.45c-8.14-.07-16.3.55-24.45,1-1.637138.053668-3.211252.64396-4.48,1.68-8,7.76-15.79,15.68-23.88,23.78l16.22,15.46c5.56-5.3,10.66-10.53,16.2-15.23c2.143408-1.727258,4.788955-2.713198,7.54-2.81c28.32-.19,56.64-.14,85,0c2,0,4.47.56,5.81,1.82C597.83,936,611.2,949,624.6,962" transform="translate(1088.072499-90.62)"/><path d="M103.38,475.48c-1.4-6.42-2.7-12.87-4.23-19.26-1.92-8.07-2-8.13,6-10.82c29-9.66,57.9-19.33,86.9-28.81c3.171041-.913279,5.832591-3.080076,7.37-6c13.77-24.3,27.12-48.87,41.83-72.6c5.38-8.68,6.06-16.56,4-25.76-2.69-12.09-2.54-12.15,9.36-16.07c3.71-1.22,7.48-2.25,10.68-3.21c2.38,11,4.68,21.14,6.71,31.36.343943,1.894153.05214,3.848877-.83,5.56-19.1,33.32-38.36,66.55-57.5,99.85-2.203696,4.06143-5.965718,7.050829-10.42,8.28-24.19,7.67-48.21,15.92-72.36,23.71-3.62,1.17-4.91,3-4.21,6.4.88,4.34-.68,6.74-5.06,7.89-3.34.88-13,4.23-16.44,5.45Z" transform="translate(1088.072499-90.62)"/><path d="M138.58,426.17c-2.27-11.82-4.58-23.53-6.69-35.26-.2-1.1.69-2.51,1.33-3.62q29.25-51.09,58.68-102.08c1.08-1.86,3.76-3.18,6-3.93c24.84-8.39,49.7-16.71,74.63-24.79c4.17-1.35,6.95-2.51,5.23-7.67-1.28-3.85.42-6,4.52-7c4.51-1,8.86-2.76,13.28-4.18c3-1,4.57-.22,5.07,3.22c1.36,9.35,3,18.65,4.66,28.61-2.87.8-6.06,1.53-9.14,2.58-20.41,6.93-40.77,14-61.21,20.88-8.17,2.74-16.5,5-24.81,7.36-3.32.92-5,2.87-6.5,6-3,6.18-7.11,11.83-10.5,17.85C181,345.59,168.91,367,157.22,388.62c-1.44,2.65-.87,6.68-.47,10c.65,5.4,2.15,10.7,2.77,16.1.15,1.3-1.43,3.53-2.76,4.14-5.76,2.58-11.66,4.73-18.18,7.31Z" transform="translate(1088.072499-90.62)"/><path d="M619.19,186.76c-8.45,7.92-16.48,15.65-24.79,23.07-1.37,1.21-3.94,1.49-5.95,1.5-34.3.08-68.61-.2-102.9.31-5.78.09-9.22-1.61-13-5.35-17.74-17.57-35.73-34.89-53.63-52.3-.59-.57-1.23-1.1-2.83-2.53L411,159.7c-6.41-5.5-11.61-9.8-16.54-14.39-.61-.57-.3-3.23.49-4c6.51-6.44,13.25-12.64,19.86-19c3-2.84,4.68-.54,6.62,1.33c21.4,20.73,42.77,41.5,64.32,62.08c1.996084,1.816065,4.564192,2.877266,7.26,3c28.64.21,57.29.08,85.93.21c3.61,0,6.29-.88,8.75-3.6c3.57-3.94,7.56-7.5,11.29-11.31c2.32-2.37,4.37-2.47,6.8,0c4.29,4.25,8.81,8.39,13.41,12.74Z" transform="translate(1088.072499-90.62)"/><path d="M453.27,144.38c7.72-7.39,14.71-14.55,22.28-21c2.803982-2.261686,6.269347-3.546715,9.87-3.66q52.45-.45,104.92-.15c2.27,0,5,1.66,6.72,3.34c17.81,17,35.45,34.24,53.16,51.38c1.54,1.49,3.21,2.87,4.74,4.23.388746-.063308.764017-.19178,1.11-.38c6.69-5.89,6.68-5.88,13.34.51c3.32,3.19,6.69,6.33,7.62,7.8l-21.76,26.46c-11.31-11-21.81-21.15-32.25-31.38-12.73-12.46-25.34-25-38.19-37.38-1.798973-1.571025-4.074601-2.490435-6.46-2.61-24.45-.79-48.91-1.25-73.37-2-11.92-.37-21.35,3.31-28.62,13.42-6.85,9.52-5.42,8.09-13.23.74-3.26-3.14-6.54-6.2-9.88-9.32Z" transform="translate(1088.072499-90.62)"/><path d="M257.33,874l9.69,2.95c-1.53,6.37-3.25,12.2-4.26,18.14-.76,4.41-2.39,4.82-6.37,3.47-8-2.72-16.13-5-24.31-7.06-4.11-1-2.62-3.83-2.24-5.89c1.83-9.78,3.95-19.51,6-29.26c4.5-21.59,9.08-43.17,13.41-64.8.319621-2.261501-.120005-4.565143-1.25-6.55q-23.75-41.84-47.82-83.49c-1.036977-1.84174-2.649379-3.292551-4.59-4.13-6.22-2.2-12.66-3.75-18.88-6-1.27-.45-2.87-2.77-2.69-4c.84-5.73,2.38-11.35,3.41-17.06.53-2.94,2-3.59,4.55-2.73c9.76,3.28,19.54,6.48,29.23,10c1.615149.773129,2.934908,2.050768,3.76,3.64Q244.24,732,273.29,782.85c.800795,1.380622,1.120851,2.987934.91,4.57-2.38,11.5-5.05,22.94-7.46,34.44q-4.38,21-8.44,42c-.62,3.19-.65,6.52-.97,10.14Z" transform="translate(1088.072499-90.62)"/><path d="M179,619.62c-5.37,24.35-10.64,48-15.75,71.61-1.92,8.92-3.57,17.9-5.13,26.88-.169736,1.604148.180853,3.220361,1,4.61q24.88,42.94,50,85.75c1.18337,1.735629,2.894638,3.043626,4.88,3.73c7.13,2.6,14.39,4.86,21.79,7.3l-6.24,23.2c-7.31-2.66-14.4-5.26-21.5-7.81-1.87-.67-3.89-1.94-5.66-1.69-5.61.8-7.83-2.52-10.21-6.69q-27.56-48.32-55.49-96.42c-2.21571-3.679998-2.891217-8.085172-1.88-12.26c2.64-13,5.64-26,7.92-39c.86-4.93,3.42-16.6,3.73-17.85c1.76-7.08,3.19-14.25,4.8-21.37.72-3.16-.5-5.15-3.65-5-5.06.26-6-2.13-5.05-6.4c1.29-6.13,2.41-12.29,3.76-19.23Z" transform="translate(1088.072499-90.62)"/><path d="M936.5,683.73l-18.14,6.74c-2.75,1.13-4,2.35-3.17,5.54c1.527093,5.931084,2.735489,11.939686,3.62,18c.401448,2.705703-.03475,5.469458-1.25,7.92q-23.28,41-47.06,81.74c-1.424758,2.32285-3.581101,4.106319-6.13,5.07-21.08,7.06-42.29,13.72-63.38,20.75-2.47.83-15.66,5.34-20,6.79-10.91,3.64-10.92,3.61-8.66,15.12.09.49.08,1,.17,1.49c1.41,7.27,2.82,14.53,4.25,21.87l23-8.37c-.53-3.37-1.07-6.76-1.66-10.44c7.4-2.58,14.55-5.16,21.77-7.55c19.21-6.37,38.49-12.52,57.63-19.1c3-1,6.41-3.28,8-5.94c18.13-30.81,35.78-61.91,54-92.69c4.24-7.17,6.1-13.88,3.47-22" transform="translate(1088.072499-90.62)"/><path d="M972,627.72l-23.23,8.18c1.62,10.67,1.62,10.65-8.51,14-23.65,7.73-47.31,15.41-70.89,23.33-2.402891.876282-4.446584,2.52601-5.81,4.69-18.49,31.76-36.65,63.72-55.29,95.39-3.6,6.12-5.23,11.6-3,18.57l6.12,26.27c7.53-3.24,13.45-5.49,22-9.51-1.31-6.12-3.08-13.05-4.15-20.08-.45-2.89-.28-6.51,1.11-8.95q23.16-40.79,46.93-81.22c1.298099-2.0681,3.236485-3.655329,5.52-4.52c27.3-9.39,54.68-18.59,82-27.81c4.36-1.47,8.75-2.83,13.35-4.32-2.07-11.39-4.03-22.29-6.15-34.02Z" transform="translate(1088.072499-90.62)"/><path d="M604.73,952.77c-1.93-2.14-3.59-1.62-5.45.25-3.871828,4.138651-7.971531,8.058074-12.28,11.74-2.315039,1.938412-5.179138,3.102936-8.19,3.33-28.31.24-56.61.1-84.92.21-3.132114.162652-6.180005-1.045553-8.35-3.31q-31.83-31-63.91-61.78c-1.37-1.32-3-2.4-4.7-3.78L393.25,922L410,938.32c1.054109-.826833,2.034456-1.743607,2.93-2.74c2.9-3.69,5-3.71,8.61-.1c17.9,17.88,36.16,35.4,54.39,52.95c1.302517,1.198851,2.982239,1.906103,4.75,2q54.42.42,108.85.51c1.95895-.038513,3.846178-.744018,5.35-2c8-7.24,15.8-14.7,23.07-21.53-4.73-5.27-8.95-9.95-13.22-14.64Z" transform="translate(1088.072499-90.62)"/></g><g id="edVgmuc4QRq16"><path d="M824.11,628.41c-3.67-7.63-6.92-15.46-10.5-23.14-3.44-7.4-9.28-11.27-17.51-12-5.134798-.376613-10.205065-1.373878-15.1-2.97-9.33-3.27-13.62-11.14-16.32-20-1.847683-6.253713-5.716045-11.718654-11-15.54-9.8-7.32-19.36-15-29.14-22.56-2.52-1.78-5.09.51-5.09.51l-14.13,19.06c-11.05-10.75-24.28-18.83-30.55-33.47-.902967-1.770891-2.115389-3.366006-3.58-4.71-14.7-15.29-28.68-31.19-38.48-50.16-6.24-12.09-11.47-24.7-17.22-37-1-2.15-2.31-4.16-3.8-6.82l-26.42,27.83c-1.51-2.57-2.6-4.24-3.51-6q-19.62-37.85-39.18-75.74c-2.8-5.43-7-6-11.05-1.36-5.733166,6.709267-9.614589,14.799586-11.26,23.47-1.44,6.93-2.93,14.2-6.24,20.32-10,18.41-20.67,36.45-31.46,54.41-5.61,9.34-12,18.2-18.55,28-1.22-2.4-1.88-3.69-2.53-5-4.34-8.79-8.47-17.7-13.09-26.34-3.91-7.32-7.72-7.7-13.5-1.87s-11.5,12.06-17.5,17.83c-7.25,7-11.28,15.48-12.93,25.22-1.14,6.69-4,12.16-9.58,16.25-3,2.18-4.77,2.18-6.58-1.3-1.205686-1.999877-2.713519-3.801182-4.47-5.34-4.71-4.6-7.37-4.53-11.33.9-7,9.54-13.63,19.31-20.47,28.94-5.09,7.17-10.26,14.27-15.74,21.89-5.91-4.76-11.3-9.16-16.74-13.49-4.38-3.48-8.37-2.78-10.85,2.07-10.94,21.42-25.48,39.73-45.61,53.27-1.34.91-2.27,2.41-3.46,3.56-4.87,4.68-9.65,9.47-14.72,13.93-2.45,2.16-5.47,3.66-8.38,5.55.81,1.6,1.42,2.94,2.15,4.21q20.9,36.32,41.84,72.62q39.52,68.52,79.08,137c2.4,4.15,4.36,9.65,8.06,11.6c3.18,1.67,8.56-.85,13-1.51.330826-.05196.665121-.078703,1-.08c19.94,0,39.89-.3,59.82.07c21.62.39,43.22,2,64.83,2c44.46-.08,88.92-1,133.38-1.39c21.49-.17,43,.14,64.46.38c4.11,0,6.85-1.37,8.92-5c11.46-20.08,23.35-39.91,34.53-60.14c10.22-18.48,19.08-37.72,29.67-56c15-25.88,31.09-51.15,46.7-76.68c2.51-4.11,6.92-8.27,6.9-12.38-.06-4.31-4.63-8.47-6.77-12.9Zm-240-129.76c3-5.5,6.49-10.77,9.55-16.26.672948-1.272123.771171-2.770932.27-4.12-5.38-10.27-2.37-18.84,5-26.64l6.94-7.31c8.76,16.76,17.14,32.82,25.54,48.87c9.047595,17.278091,20.494379,33.189121,34,47.26c6.29,6.57,13.8,12,21,17.6c3.3,2.54,4.19,4.22.54,7.15-10.88,8.74-21.52,17.79-32.43,26.5-4.95663,4.079067-11.367195,5.950923-17.74,5.18-2.325477-.270792-4.674523-.270792-7,0-4.9.62-9.31,2.27-12.06,6.84-1.71,2.85-3.61,5.59-5.39,8.4-5,7.92-12.46,11.32-21.58,12.36-8,.9-15.89,2.61-24.38,4.06.2-4.39-.63-9.63,3.43-13.6c14.08-13.75,22.35-31.32,31.83-48.09.78-1.38.26-3.49.35-5.27l-2.14-.71q-10.62,14.19-21.25,28.39h-1.27c0-4.66,0-9.31,0-14c0-5,.23-10.08-.23-15.07-.18-1.93-1.73-3.93-3.1-5.52-3-3.51-3.37-7.48-1.27-11.11c6.57-11.36,8.71-23.46,8-36.43-.14-2.77,1.88-5.82,3.35-8.48ZM521.3,462.59c-1.83196,1.046219-3.586468,2.222574-5.25,3.52-1.494412,1.494795-2.87493,3.099271-4.13,4.8l-2.28-1.08c1.53-6.11,2.52-12.41,4.71-18.28c2.83-7.61,7.64-14.58,9.75-22.33c3.31-12.11,5-24.65,7.49-37c.51-2.62,1.17-5.2,2-8.77c9.77,11.34,15.74,23.35,21.72,35.34c5.7,11.45,11.15,23,16.94,34.43c1.94,3.8,1.81,6.9-1.13,10-4.13,4.31-7.8,9.2-12.44,12.87-4,3.2-9.25,4.89-13.77,7.54-3.65,2.13-7.48,4.24-10.46,7.16-5.1,5-9.46,10.75-14.44,15.88-1.64,1.69-5.38,4-6.19,3.35-2.58-1.93-5.48-4.92-5.92-7.85-.56-3.67.55-8,2.11-11.5c3.62-8.19,8-16.07,12-24.09.290114-.737115.507806-1.500714.65-2.28-.47-.58-.92-1.14-1.36-1.71Zm6,244.13c9.46-12,19.57-23.44,29.48-35.06c1.579848-1.691202,3.248892-3.296822,5-4.81l.78.52c-5.14,12.89-9.56,26.14-15.75,38.5-2.89,5.77-9,10-14.08,14.55-4.215827,3.773426-8.697369,7.239018-13.41,10.37-6.52,4.39-13.55,8.13-21.71,7.31-9.53-1-17.41,3.15-25.44,7.1-3.64,1.79-7.27,3.6-11,5.47c10.21-18.3,26.44-27.4,45.66-32c8.04-1.95,15.03-5.07,20.46-11.95ZM410.5,532.82c5.141425-9.177046,12.140464-17.180813,20.55-23.5c5.81-4.36,8.63-10,8.79-17.45.14-6.69,1.29-13.35,2-20L443,472c7,11.79,14.14,23.52,21,35.43.76,1.33.47,4.41-.56,5.43-7.55,7.44-15.42,14.57-22.85,21.48.21-1.69.56-4.53,1.06-8.65l-36.1,23-1.56-1c2.13-4.95,3.85-10.17,6.51-14.87ZM303,596.65c1.64927-3.443812,3.660612-6.702186,6-9.72c4.49-5.34,5.37-11.52,5.6-18.11.18-5.2.78-10.38,1.19-15.57l1.87-.61l28.85,42c-21.87,4.78-34.28,22.5-53.36,30.88c1.727326-10.085872,5.052434-19.831647,9.85-28.87Zm93.84,114.64c-8.37,2.7-16.79,5.29-25.1,8.16-5.1,1.76-8.71.63-12-3.83-3-4-7.46-5.83-12.64-5.8-13.16.07-26.32,0-39.47,0h-6.93c1.62-4.32,2.6-7.68,4.11-10.78c6.61-13.51,6.17-15.39-8.07-19.5-7.59-2.19-10.5-7.37-12.15-14-2.41-9.77-4.61-19.59-6.9-29.39l1-.22c3.49,5.42,6.94,10.87,10.5,16.25c3.837397,6.187107,9.991872,10.580588,17.09,12.2c10,2.56,19.14,8.09,28.64,12.37c7.7,3.47,15.06,8.39,23.13,10.17c15.64,3.45,25.4,15.68,38.77,22.31.04.67.02,1.37.01,2.06Zm-5.28-82.63c-1.22.4-2.48.64-3.73,1c10.728928-11.743843,23.682668-21.24076,38.11-27.94c17.34837-8.095275,32.87985-19.616327,45.66-33.87c5.83-6.39,12-12.54,18.32-18.4c2.49-2.29,6-3.48,9.06-5.17l.95,1.06c-.383867,1.158074-.841469,2.290389-1.37,3.39-4.48,8.15-8.82,16.39-13.59,24.37-3.88,6.5-10.12,10.1-17.47,11.12-8,1.11-12.44,6-14.81,12.92-3.1,9.1-9.16,14.55-18.17,17.42-14.37,4.53-28.65,9.38-42.97,14.1ZM607.41,792c-5.52,7.79-11.15,15.54-17.15,23-6.27,7.76-12.87,15.27-19.64,22.61-1.71,1.85-4.61,3.69-7,3.71-29.81.24-59.63.15-89.45.14-.670837-.040257-1.338684-.120399-2-.24v-24.36l1.54-.27c.75,3,1.95,6.07,2.15,9.15.43,6.56,7.13,13.17,13.64,12.59c12.89-1.15,25.75-2.52,38.62-3.83.949707-.116857,1.791696-.667104,2.28-1.49-2.27-.49-4.57-1.45-6.82-1.37-4.8.17-8.4-2.07-11.43-5.21-5.88-6.1-12-11.93-16.92-19-2.25-3.24-6.93-4.79-10.51-7.11-1.91-1.23-4.31-2.07-5.62-3.76-2.29-2.94-4.81-3.81-8.2-2.76l-1.6,1.88l6.6,2.91-5.3,1.95c.62,3.94,1.21,7.74,1.8,11.55l-1.85.76c-1.71-3.34-3.42-6.67-5.7-11.14-.72,2.38-1.31,4.33-2,6.72L457,809.82c-1.3,3.46-.3,7,2.74,8c2.55.84,5.91-.77,10.17-1.52l-13.14,24.45-1.6-.28c-3.8-8.18-7.79-15.9-4.89-26c1.89-6.6,1.38-14,1.08-21.08-.14-3.28-3-5.24-6.52-2.92s-6.73,4.72-10.86,7.64c-.75-4.57-1.6-9-2.19-13.48-1.1-8.4-1.9-16.84-3.15-25.22-.46-3-2.36-5.89-2.71-8.93-.370486-3.524153-.208675-7.083991.48-10.56.5-2.64,2.28-2.21,4-.45c6.07,6.33,12.14,12.65,18.35,18.84c8.49,8.46,17.13,16.77,25.66,25.19q15.82,15.62,31.56,31.32c2.12,2.1,4.72,4.05,6,6.62c2.47,5.09,6.7,5.93,11.46,6c8.66.09,17.37.59,26-.2c5.117139-.424722,10.041858-2.145448,14.31-5c9.65-6.88,18.66-14.66,27.77-22.27c6.35-5.32,12.42-11,19.56-15.85-1.3,2.62-2.03,5.56-3.67,7.88Zm8.77-78.45c-3.78-11.41-7.13-21.49-10.47-31.57l1-1L627,701.61c-3.63,4.02-6.89,7.61-10.82,11.93ZM702.3,831.07c-12-7.66-17.06-17.54-13.5-25.17l7.82,3.52c.22,2.13.54,5.26.88,8.51c2.74,1.82,4.93,1.16,6.7-1.44c3.56-5.26,7.11-10.53,9.87-14.62-1.43-2.07-2.4-4.36-4.12-5.62-1.05-.76-3.68-.53-4.88.3-3.52,2.43-6.69,5.38-10.36,8.41l-4.23-2.41l8.13-4.8c-4.8-3.11-9.28-1.58-13.5,7.14-1-3.62-2.64-6.41-2.43-9c1-12-1.66-23.36-5.29-34.6-.39-1.21-.6-2.47-1-4.33c5.52,1.31,5.5,5.89,6.56,9.21c1.66,5.19,2.34,10.69,3.72,16c.92157,2.880064,1.999845,5.707613,3.23,8.47L686.55,793c.1.44.21.88.31,1.32c7-.92,13.93-1.6,21-2.54c7.64-1,14-4.33,22.68-6.28Zm29.13-48.54c-3.31-6,3-17.66,10.86-19.7l-8.9-5.05.38-.48c-1.12-1.1-2.06-2.83-3.38-3.21-8.56-2.45-17.43-4-25.74-7.08-5.7-2.12-11.06-4-17.2-3.22-4.23.51-8.36.21-10.58-4.48-.24-.5-1.39-.58-2.67-1.06-.27,2.24-.5,4-.87,7.09-3.51-2.66-6.35-4.83-9.2-7l-1.31,1.06c1.971584,2.623284,3.800884,5.350544,5.48,8.17c1.15,2.16,2.4,4.76,2.21,7.06-1.15,13.55-2.68,27.08-4.16,40.61-.294424,1.79064-.701906,3.560846-1.22,5.3-4.56-3.58-5.93-8.59-4-11.62-1.41-1.35-2.76-2.48-3.91-3.79q-3.83-4.35-7.45-8.87c-.96368-1.075392-1.707654-2.328937-2.19-3.69-2.398256-9.191129-6.873019-17.709599-13.08-24.9-3.765595-4.042311-5.62812-9.498927-5.12-15c.78-9.6.92-19.27,1-28.91c0-1.66-1.4-3.56-2.61-5-3.93-4.55-8.07-8.91-12.08-13.29c2.05-6.56-3.63-16.17-10.11-17.7l1.53,8c-8.71-3.35-9.3-11.39-11.84-18.29c2.18,2.81,4.35,5.63,6.57,8.5.76-1.29,1.16-2.91,2.14-3.42c3.07-1.62,1.78-3.4.08-4.5-3-2-6.44-3.37-9.62-5.13-2.15-1.19-4.19-2.59-6.28-3.9l.74-1.43c.58-.11,1.3-.49,1.74-.28C602.27,653,614,658.19,621.36,670c5.667936,9.017163,11.984621,17.60986,18.9,25.71c4.807938,5.485882,10.196039,10.434754,16.07,14.76c10.42,8,21.63,15,31.81,23.27c9.32,7.57,19.75,11.11,31.34,12.71c8.7,1.21,17.3,3.16,25.94,4.82c1.24.23,2.44.69,4,1.15ZM815,648.89c-6.41,10.69-12.74,21.45-18.88,32.3-1.63,2.88-3.75,4.7-6.71,3.47-2.730852-1.10694-5.096942-2.956855-6.83-5.34-1.21-1.81-.72-4.76-1.44-5.79l7.59,6.75C794,675.6,797.2,672,796,666c-.41-2,.79-4.36,1.37-6.53.86-3.16,1.82-6.3,2.74-9.45l-1.33-.54-5.09,5.5c.47-3.09.77-5.09,1-6.8l6.18-2.42c-1.18-1.59-2.71-2.72-2.63-3.71.44-5.55-1.79-6.13-6.13-3.83-.61.32-1.55,0-2.8,0L793.1,633h-7.91c1.27-3.22,1.27-3.22,12.06-3.57l-12.32-14.66c.63-.89,1.67-2.32,3-4.19-1.73-.66-3.3-1.68-4.94-1.83-10.73-1-17.11-8.15-22.69-16.09-2.81-4-5.87-5.95-10.69-5.34-1.615547.056226-3.232786-.040875-4.83-.29c2.05,7.05,4.07,14,6.08,20.9l.94-.27.29-5.6c5.67,9.12,8.6,19,19.32,23.42-1.19,4.57-2.67,10-4,15.57-.69,2.82-3.09,6.14,1.72,7.79.14,0,.35.24.34.35-.48,8.86,7.86,12.34,11,19.31-7.11-5.57-14.33-11-21.27-16.78-1.9-1.59-2.14-3.8.51-5.84c1.43-1.1,2.33-3.36,2.69-5.25.69-3.57.54-7.31,1.27-10.88.77-3.81-.75-6-4.2-6.41-8.92-1-12.4-6.54-14.18-14.72-3.57-16.4-7.72-32.68-17.87-46.64-.973742-1.54394-1.506317-3.324955-1.54-5.15.034311-2.344988.238176-4.684424.61-7l6.06,3.5-.16-.17c6.26,3,11.91,6.66,14.58,13.44c4,10.22,10.49,18.87,17.41,27.18c1.684497,1.73678,3.833422,2.951843,6.19,3.5c4.79,1.32,9.75,2,14.58,3.14c5.34,1.32,9.26,4.52,10.91,9.91c3.56,11.61,11.55,20.51,18.44,30c2.22,3.11,2.36,5.44.5,8.56Z" transform="translate(-4.09-90.62)"/><path d="M611.4,558.63v-7.63c-3.6,0-3.6,0-4.11,7.52h-27.29c2.12-4,3.55-6.64,5.47-10.23l-6.94,1.6c1.81-6.24,4-11.77,4.92-17.5c1.2-7.18,3.79-14.18,2.25-21.83-1-5.2.61-6.27,6.11-6.2.39,1.82.44,3.82,1.35,5.29.3.5,2.78-.35,4-.54v-6.18c1.73.21,3.49.3,5.18.67c3.65.78,7.27,1.72,11.14,2.65-.4,2.59-1,4.45-4.51,4.44-2.003799.228748-3.782549,1.388641-4.8,3.13-1.61,3.53-2.37,7.45-3.46,11.18c3.46-2.09,6.73-7,13.53-4.73l-4.3,6.52c.7,3.27,1.44,6.7,2.48,11.56l-4.73-3.92-2.24,5.1c9.31,6.49,16.58,4.71,21.34-5.38l3.23,6.56l2,.45c-3.33-8.5,4.67-7.83,7.22-12.36l-6.16,1.46-.84-1c1.94-1.55,3.75-4.16,5.84-4.41c2.84-.34,6.66.24,8.69,2c3.49,3,5.92,7.28,9.06,11.35l-2.65,1.75c4.92,2.87,9.9,5.57,14.66,8.62s9.16,6.37,13.61,9.5c-2.15,7.2-5.42,12.46-10.95,16.45-3.59,2.58-6.59,6-9.88,9-1.554454,1.459792-3.183291,2.838296-4.88,4.13-4.89,3.59-9.65,3.84-14.26-.66-3.64-3.55-7.9-2.63-12.88-1.19l8.82,4.5c-3,.39-4.54.66-6.08.78-7.69.58-14.56,2.33-17.61,10.72-.33.92-2.5,1.45-3.9,1.67-3.51.55-5.54,1.38-6.68,5.78s-5.31,7.93-8.35,12.12c-7.31-9.12-6.57-21.84.83-29.32.44-.45,1.2-1.1,1.59-1c5.43,1.73,5-2.78,5.86-5.61.485402-1.934715.760331-3.916216.82-5.91.38-4.8,2.67-6.87,7.7-6.72c6,.17,6-.19,5-6.18-1.13-6.2-1.13-6.2-5.2-8Zm11.6,21.9c5.69-4.44.32-6.4-.24-9.75-5.39,3.83-.64,6.11.24,9.75Z" transform="translate(-4.09-90.62)"/><path d="M635.56,518.93l-9,9.16l3.65-14.1-13,4.23c1.7-5.91,6.61-8.18,14.21-7.61Z" transform="translate(-4.09-90.62)"/><path d="M582.92,568.05c-.65-1.79-1.18-3.26-2-5.52l8.78-1.44c.26.59.53,1.18.8,1.77Z" transform="translate(-4.09-90.62)"/><path d="M568.79,828.29c-5.15,7.78-10.43,9.78-18.19,6.9Z" transform="translate(-4.09-90.62)"/><path d="M455.23,792.06c-.36-7.79-3.77-12.07-12.36-10.42.25-.7.49-1.41.74-2.12c1.072579.1885,2.161366.268902,3.25.24c1.48-.17,2.93-.63,5.6-1.24l4.43,13.05Z" transform="translate(-4.09-90.62)"/><path d="M658,782c-.424664-1.907094-.9521-3.789841-1.58-5.64-.648277-1.245687-1.38692-2.442221-2.21-3.58l6.48-2.66c-9.48-1.88-10.33-7.08-7.53-14.2l-4.06,3.22c-.62-3.76-1-6.75-1.64-9.67-.32-1.4-.9-3.51-1.89-3.87-4.81-1.75-5.5-5.68-6.13-9.9-.37-2.5.89-5.6-3.28-6.84-1.07-.32-1.19-4.52-1.38-7-.45-5.69-.68-11.38-1-17.08l1.43-.5c4,3.13,8,6.27,12.43,9.76l3.88-1.87c0,3.09-.33,5.54.1,7.84.35,1.86,1.61,3.54,2.74,5.88l-2.64,3c1.9,1.13,3.48,2.09,5.09,3c3.94,2.26,6.47,5,4.35,10-.44,1,.09,2.53.28,3.79c1.33,9.09,3.24,18.15,3.69,27.28.18,2.65-4.01,5.38-7.13,9.04Z" transform="translate(-4.09-90.62)"/><path d="M365,705.73c-7.73,3-12.84,1.52-13.5-3.09l-3.9,1.29v-5.47c3.5-.4,7.44-2,10.28-.85s4.55,5,7.12,8.12Z" transform="translate(-4.09-90.62)"/><path d="M325.69,700.71l-15.88-2.65c3.62-2.72,12.11-1.53,15.88,2.65Z" transform="translate(-4.09-90.62)"/><path d="M538.71,462.68c-2.74-5.7-7.12-2.8-9-1.21-2.24,1.92-2.67,6-4.42,9.08.52-5.25,1-10.5,1.56-15.69l-1.49-.3-7-1.49c.93-2.31,1.47-6.31,2.85-6.63c6.76-1.56,6-7,7-11.58.203729-.995629.852236-1.843111,1.76-2.3.3,2.81.59,5.61.9,8.61h3.3c2.63-9.93,5.19-19.58,7.74-29.23l2.13.57c-.85,2.69-1.69,5.37-2.65,8.43l5.57.72c-3.74,1.08-7.09,2.26-7,7.3.07,3.63-2.2,7.54,1.93,10.61.565405-.245614,1.113351-.52961,1.64-.85c4.81-3.21,5-3.2,7.29,2.29c1.86,4.56,3.5,9.2,5.24,13.81l1.82.31l2.38-7.63c4.07,3,1.81,7.22,1.87,10.67c0,.92-3,2.16-4.79,2.76-1.35.45-3-.07-4.45.19-3.54.64-4.45,3.09-2.59,5.9l-3.78,5.3l6.81-1.21c-1.1,1.61-1.54,3-2.17,3.06-4.09.63-7.83,2.74-12.5.85-2.18-.88-6.12,1.43-8.62,3.2-.87.61.67,4,.26,6-.55,2.63-1.94,5.08-2.74,7l-8.28-3.8c1-3.29,2.1-6.87,2.75-9c3.34-1.17,5.51-1.88,7.65-2.68c5-1.88,10-3.79,14.94-5.65.51-3.24,1.1-7,1.82-11.58-1.5.26-3.75.09-5.18,1.09-.89.63-.47,3-.78,4.61-.23,1.17-.36,2.8-1.13,3.29s-2.16-.51-3.81-1Z" transform="translate(-4.09-90.62)"/><path d="M551.84,430.19l-7.64,3.75c-.22-4.92,1.18-5.77,7.1-5.1Z" transform="translate(-4.09-90.62)"/><path d="M732.39,553.17c1.57,1.52,3.21,3,4.69,4.58c1.44805,1.398988,2.70553,2.982607,3.74,4.71c1.36,2.67-.06,6.43,4.11,8.24c1,.44.15,5.22.15,8.87-3.63-4.12-6.53-6.88-8.78-10.1-2.483618-3.790778-4.76028-7.71318-6.82-11.75-1.84-3.38-.08-4.41,3.07-4.38Z" transform="translate(-4.09-90.62)"/></g></svg>