<svg id="edVgmuc4QRq1" xmlns="http://www.w3.org/2000/svg" xmlns:xlink="http://www.w3.org/1999/xlink" viewBox="0 0 1067.27 928.49" shape-rendering="geometricPrecision" text-rendering="geometricPrecision">
 <g>
  <title>Layer 1</title>
  <g stroke="null" id="edVgmuc4QRq16">
   <path stroke="null" id="svg_14" d="m1031.8375,501.13745c-6.29616,-13.08983 -11.87177,-26.52277 -18.01352,-39.69837c-5.90157,-12.69524 -15.92052,-19.33451 -30.03969,-20.58688c-8.80913,-0.6461 -17.50753,-2.35699 -25.90516,-5.09525c-16.0063,-5.60993 -23.36611,-19.11149 -27.99816,-34.31147c-3.16983,-10.7287 -9.8063,-20.10421 -18.87131,-26.66001c-16.81262,-12.558 -33.2135,-25.7336 -49.99181,-38.70334c-4.32325,-3.05372 -8.73227,0.87494 -8.73227,0.87494l-24.24105,32.69883c-18.95709,-18.44242 -41.65413,-32.30425 -52.41077,-57.42025c-1.54911,-3.03809 -3.62911,-5.77464 -6.14175,-8.08035c-25.21893,-26.23112 -49.20265,-53.50874 -66.01527,-86.05317c-10.70518,-20.74128 -19.67763,-42.37467 -29.54218,-63.47622c-1.71557,-3.68848 -3.96298,-7.13679 -6.51918,-11.70021l-45.32545,47.74441c-2.59052,-4.40902 -4.46049,-7.27403 -6.02166,-10.29344q-33.65955,-64.93446 -67.21617,-129.93754c-4.80361,-9.31556 -12.00902,-10.29344 -18.95709,-2.33318c-9.83568,11.51025 -16.49454,25.38979 -19.31736,40.26451c-2.47043,11.88893 -5.02663,24.36115 -10.70518,34.86046c-17.15574,31.58371 -35.46091,62.53266 -53.97195,93.34436c-9.62437,16.02346 -20.58688,31.22344 -31.82389,48.03606c-2.093,-4.11738 -3.22528,-6.33047 -4.3404,-8.57787c-7.44559,-15.07989 -14.53091,-30.36565 -22.45686,-45.18821c-6.70789,-12.558 -13.24423,-13.20992 -23.16024,-3.20812s-19.7291,20.68982 -30.02254,30.58868c-12.43791,12.00902 -19.35167,26.55708 -22.18237,43.26677c-1.95575,11.47719 -6.86229,20.86137 -16.4352,27.87807c-5.14672,3.73995 -8.18329,3.73995 -11.28847,-2.23025c-2.06845,-3.43094 -4.65524,-6.5212 -7.66861,-9.16116c-8.08035,-7.89164 -12.64378,-7.77155 -19.43745,1.54402c-12.00902,16.36657 -23.38327,33.12773 -35.11779,49.6487c-8.73227,12.30066 -17.60179,24.48124 -27.00313,37.55391c-10.13904,-8.16613 -19.38598,-15.71465 -28.7187,-23.14309c-7.51421,-5.9702 -14.35935,-4.76929 -18.61397,3.55124c-18.76838,36.74759 -43.71282,68.15974 -78.24731,91.38861c-2.29887,1.56117 -3.89435,4.13453 -5.93588,6.10744c-8.35484,8.02888 -16.55529,16.24648 -25.25324,23.89794c-4.20316,3.70564 -9.38419,6.279 -14.37651,9.52143c1.38961,2.74492 2.43611,5.04379 3.68848,7.22256q35.85549,62.30963 71.7796,124.58495q67.79947,117.5511 135.66756,235.03358c4.11738,7.11963 7.4799,16.55529 13.82752,19.90065c5.45552,2.86501 14.68531,-1.45824 22.30246,-2.59052c0.56756,-0.08914 1.14106,-0.13502 1.71557,-0.13725c34.20854,0 68.43423,-0.51467 102.62561,0.12009c37.0907,0.66907 74.14709,3.43115 111.22064,3.43115c76.2744,-0.13725 152.5488,-1.71557 228.82321,-2.38465c36.86768,-0.29165 73.76966,0.24018 110.58587,0.65192c7.05101,0 11.75168,-2.35034 15.30292,-8.57787c19.66047,-34.44872 40.05864,-68.46854 59.23876,-103.1746c17.53316,-31.7038 32.73314,-64.71144 50.90107,-96.07212c25.7336,-44.39904 53.33718,-87.75159 80.11729,-131.55018c4.30609,-7.05101 11.87177,-14.18779 11.83746,-21.2388c-0.10293,-7.39412 -7.94311,-14.53091 -11.61443,-22.1309zm-411.73766,-222.61283c5.14672,-9.43565 11.13407,-18.47673 16.38373,-27.89523c1.1545,-2.18242 1.323,-4.75373 0.4632,-7.06816c-9.22979,-17.61894 -4.06591,-32.32141 8.57787,-45.70288l11.90608,-12.54084c15.02842,28.75301 29.40493,56.30513 43.81575,83.84008c15.52181,29.64184 35.15962,56.93838 58.3295,81.07801c10.79096,11.27132 23.67492,20.58688 36.02705,30.1941c5.66139,4.35756 7.18825,7.23972 0.92641,12.26635c-18.66544,14.99411 -36.91914,30.52005 -55.63605,45.4627c-8.50346,6.99794 -19.50127,10.20924 -30.43428,8.88667c-3.98953,-0.46456 -8.01948,-0.46456 -12.00902,0c-8.40631,1.06366 -15.97199,3.89435 -20.68982,11.73452c-2.93363,4.88938 -6.19322,9.59006 -9.24694,14.41082c-8.57787,13.58734 -21.37605,19.42029 -37.02208,21.20449c-13.72459,1.54402 -27.26046,4.47765 -41.82568,6.96523c0.34311,-7.53137 -1.08081,-16.52097 5.88442,-23.3318c24.15528,-23.58914 38.34307,-53.73177 54.60671,-82.50193c1.33815,-2.36749 0.44605,-5.98735 0.60045,-9.04107l-3.67133,-1.21806q-18.21939,24.34399 -36.45594,48.70513l-2.17878,0c0,-7.99457 0,-15.97199 0,-24.01803c0,-8.57787 0.39458,-17.29298 -0.39458,-25.85369c-0.3088,-3.31106 -2.96794,-6.7422 -5.31828,-9.46997c-5.14672,-6.02166 -5.78148,-12.83249 -2.17878,-19.06002c11.27132,-19.48892 14.94265,-40.24736 13.72459,-62.49835c-0.24018,-4.75214 3.22528,-9.98464 5.74717,-14.54806l0.06862,0zm-107.75518,-61.86358c-3.14286,1.79487 -6.15285,3.81298 -9.00676,6.03882c-2.56377,2.56442 -4.93215,5.31703 -7.08532,8.23475l-3.91151,-1.85282c2.62483,-10.48215 4.32325,-21.29027 8.08035,-31.36069c4.85507,-13.05552 13.10698,-25.01306 16.72684,-38.30876c5.67855,-20.7756 8.57787,-42.28889 12.84965,-63.47622c0.87494,-4.4948 2.00722,-8.92098 3.43115,-15.04558c16.76115,19.4546 27.00313,40.05864 37.26226,60.62837c9.77877,19.64332 19.12865,39.45819 29.06182,59.0672c3.32821,6.51918 3.10519,11.83746 -1.9386,17.15574c-7.08532,7.39412 -13.38147,15.78328 -21.34174,22.07943c-6.86229,5.48984 -15.86906,8.38915 -23.62345,12.93542c-6.26184,3.65417 -12.83249,7.27403 -17.9449,12.28351c-8.74943,8.57787 -16.22933,18.44242 -24.77288,27.24331c-2.81354,2.89932 -9.22979,6.86229 -10.6194,5.74717c-4.42618,-3.31106 -9.40134,-8.44062 -10.1562,-13.46725c-0.96072,-6.29616 0.94357,-13.72459 3.61986,-19.7291c6.21038,-14.05055 13.72459,-27.56927 20.58688,-41.32817c0.49771,-1.26457 0.87119,-2.57458 1.11512,-3.91151c-0.80632,-0.99503 -1.57833,-1.95575 -2.33318,-2.93363zm10.29344,418.82298c16.22933,-20.58688 33.57378,-40.21305 50.57511,-60.14801c2.71035,-2.90138 5.57371,-5.65594 8.57787,-8.25191l1.33815,0.8921c-8.81805,22.11374 -16.40088,44.84509 -27.02028,66.04958c-4.95801,9.89886 -15.44016,17.15574 -24.15528,24.9616c-7.23257,6.4736 -14.92098,12.41907 -23.00584,17.7905c-11.18554,7.53137 -23.24602,13.94761 -37.2451,12.54084c-16.34942,-1.71557 -29.86814,5.40406 -43.64419,12.18057c-6.24469,3.07088 -12.47222,6.17606 -18.87131,9.38419c17.51601,-31.395 45.35977,-47.00672 78.33309,-54.89836c13.79321,-3.34537 25.78507,-8.69796 35.10064,-20.5011l0.01716,0zm-200.379,-298.33825c8.8205,-15.7439 20.82785,-29.47494 35.25504,-40.31598c9.96748,-7.4799 14.8054,-17.15574 15.07989,-29.93676c0.24018,-11.47719 2.21309,-22.90291 3.43115,-34.31147l1.99007,0.22302c12.00902,20.22661 24.25821,40.35029 36.02705,60.78277c1.30384,2.28171 0.80632,7.56568 -0.96072,9.31556c-12.95258,12.76387 -26.45414,24.99591 -39.20086,36.85052c0.36027,-2.89932 0.96072,-7.77155 1.81851,-14.83971l-61.93221,39.45819l-2.67629,-1.71557c3.65417,-8.49209 6.60496,-17.44738 11.16838,-25.51058zm-184.42416,109.50506c2.82944,-5.90811 6.28005,-11.4981 10.29344,-16.67538c7.70293,-9.16116 9.21263,-19.76341 9.60721,-31.06904c0.3088,-8.92098 1.33815,-17.80765 2.04153,-26.71148l3.20812,-1.0465l49.4943,72.05409c-37.51959,8.20044 -58.80986,38.60041 -91.54301,52.97691c2.96336,-17.30305 8.66782,-34.02266 16.8984,-49.52861zm160.98943,196.67336c-14.35935,4.63205 -28.80448,9.07538 -43.0609,13.99908c-8.74943,3.01941 -14.94265,1.08081 -20.58688,-6.57065c-5.14672,-6.86229 -12.79818,-10.00179 -21.68485,-9.95033c-22.57695,0.12009 -45.1539,0 -67.71369,0l-11.88893,0c2.77923,-7.41128 4.46049,-13.17561 7.05101,-18.49388c11.33994,-23.1774 10.58509,-26.40268 -13.84468,-33.45369c-13.0212,-3.75711 -18.01352,-12.64378 -20.84422,-24.01803c-4.13453,-16.76115 -7.90879,-33.60809 -11.83746,-50.42071l1.71557,-0.37743c5.98735,9.29841 11.90608,18.64829 18.01352,27.87807c6.58334,10.61444 17.14179,18.15178 29.31915,20.93c17.15574,4.39187 32.83608,13.87899 49.13403,21.22165c13.20992,5.95304 25.83654,14.39366 39.68122,17.44738c26.83157,5.91873 43.57557,26.90019 66.51279,38.27445c0.06862,1.14943 0.03431,2.35034 0.01716,3.53408l0.01716,0zm-9.05823,-141.75785c-2.093,0.68623 -4.25462,1.09797 -6.39909,1.71557c18.40627,-20.14742 40.62936,-36.44009 65.38051,-47.93313c29.76241,-13.88805 56.4078,-33.65326 78.33309,-58.10648c10.00179,-10.96252 20.58688,-21.51329 31.42931,-31.56655c4.27178,-3.92866 10.29344,-5.9702 15.5431,-8.86952l1.62979,1.81851c-0.65856,1.98675 -1.4436,3.92933 -2.35034,5.81579c-7.68577,13.98192 -15.13136,28.11825 -23.31465,41.80853c-6.65643,11.15123 -17.3616,17.32729 -29.97107,19.07718c-13.72459,1.90429 -21.34174,10.29344 -25.40765,22.16521c-5.31828,15.61172 -15.71465,24.9616 -31.17197,29.88529c-24.65279,7.77155 -49.15118,16.09208 -73.7182,24.18959l0.01716,0zm370.30656,280.22179c-9.46997,13.36432 -19.12865,26.66001 -29.42209,39.45819c-10.75665,13.31285 -22.07943,26.19681 -33.69387,38.78912c-2.93363,3.17381 -7.90879,6.33047 -12.00902,6.36478c-51.14125,0.41174 -102.29965,0.25734 -153.45806,0.24018c-1.15088,-0.06907 -2.2966,-0.20656 -3.43115,-0.41174l0,-41.79137l2.64198,-0.4632c1.28668,5.14672 3.34537,10.41353 3.68848,15.6975c0.7377,11.25416 12.23204,22.5941 23.40042,21.59907c22.11374,-1.97291 44.17602,-4.32325 66.25545,-6.57065c1.6293,-0.20048 3.07379,-1.14446 3.91151,-2.5562c-3.89435,-0.84063 -7.84017,-2.48758 -11.70021,-2.35034c-8.23475,0.29165 -14.41082,-3.55124 -19.60901,-8.93814c-10.08757,-10.465 -20.58688,-20.46679 -29.02751,-32.5959c-3.86004,-5.55846 -11.88893,-8.2176 -18.03068,-12.19773c-3.27675,-2.11016 -7.39412,-3.55124 -9.64152,-6.45056c-3.92866,-5.04379 -8.25191,-6.53634 -14.0677,-4.73498l-2.74492,3.22528l11.32279,4.99232l-9.09254,3.34537c1.06366,6.75936 2.07584,13.27854 3.08803,19.81488l-3.17381,1.30384c-2.93363,-5.73002 -5.86726,-11.44288 -9.77877,-19.11149c-1.23521,4.08307 -2.2474,7.42843 -3.43115,11.52865l-10.03611,2.38465c-2.23025,5.93588 -0.51467,12.00902 4.70067,13.72459c4.37471,1.44108 10.13904,-1.32099 17.44738,-2.60767l-22.54264,41.94577l-2.74492,-0.48036c-6.51918,-14.03339 -13.36432,-27.27762 -8.38915,-44.60491c3.24243,-11.32279 2.36749,-24.01803 1.85282,-36.16429c-0.24018,-5.62708 -5.14672,-8.98961 -11.18554,-5.00947s-11.54581,8.09751 -18.63113,13.10698c-1.28668,-7.84017 -2.74492,-15.44016 -3.75711,-23.12593c-1.88713,-14.41082 -3.25959,-28.89026 -5.40406,-43.26677c-0.78916,-5.14672 -4.04875,-10.10473 -4.6492,-15.32007c-0.6356,-6.04594 -0.35799,-12.15311 0.82348,-18.11646c0.85779,-4.52911 3.91151,-3.79142 6.86229,-0.77201c10.41353,10.85958 20.82706,21.70201 31.48078,32.32141c14.56522,14.51375 29.38778,28.77017 44.02162,43.2153q27.14037,26.79726 54.1435,53.73177c3.63702,3.6027 8.09751,6.94807 10.29344,11.3571c4.23747,8.73227 11.49434,10.17335 19.66047,10.29344c14.85687,0.1544 29.79951,1.01219 44.60491,-0.34311c8.77883,-0.72864 17.22755,-3.68068 24.54986,-8.57787c16.55529,-11.80315 32.0126,-25.15031 47.64148,-38.20582c10.89389,-9.12685 21.30742,-18.87131 33.55662,-27.19184c-2.23025,4.4948 -3.48261,9.53859 -6.29616,13.51872zm15.04558,-134.58675c-6.48487,-19.57469 -12.23204,-36.86768 -17.96206,-54.16066l1.71557,-1.71557l34.80899,35.39228c-6.22753,6.89661 -11.8203,13.05552 -18.56251,20.46679l0,0.01716zm147.7452,201.61421c-20.58688,-13.14129 -29.26769,-30.09116 -23.16024,-43.18099l13.41579,6.03882c0.37743,3.65417 0.92641,9.02392 1.5097,14.59953c4.70067,3.12234 8.45778,1.99007 11.49434,-2.47043c6.10744,-9.02392 12.19773,-18.06499 16.93271,-25.08169c-2.45327,-3.55124 -4.11738,-7.4799 -7.06816,-9.64152c-1.80135,-1.30384 -6.31331,-0.90925 -8.372,0.51467c-6.03882,4.16884 -11.47719,9.22979 -17.77334,14.42797l-7.25688,-4.13453l13.94761,-8.23475c-8.23475,-5.33543 -15.92052,-2.71061 -23.16024,12.2492c-1.71557,-6.21038 -4.52911,-10.99683 -4.16884,-15.44016c1.71557,-20.58688 -2.84785,-40.0758 -9.07538,-59.35885c-0.66907,-2.07584 -1.02934,-4.23747 -1.71557,-7.42843c9.46997,2.2474 9.43565,10.10473 11.25416,15.80043c2.84785,8.90383 4.01444,18.33948 6.38193,27.44918c1.58102,4.94095 3.43089,9.79183 5.5413,14.53091l-5.74717,4.04875c0.17156,0.75485 0.36027,1.5097 0.53183,2.26456c12.00902,-1.57833 23.89794,-2.74492 36.02705,-4.35756c13.10698,-1.71557 24.01803,-7.42843 38.90921,-10.7738l-48.4478,78.17869zm49.97466,-83.27394c-5.67855,-10.29344 5.14672,-30.29703 18.63113,-33.7968l-15.26861,-8.66365l0.65192,-0.82348c-1.92144,-1.88713 -3.53408,-4.85507 -5.79864,-5.50699c-14.68531,-4.20316 -29.90245,-6.86229 -44.15886,-12.14626c-9.77877,-3.63702 -18.97424,-6.86229 -29.50787,-5.52415c-7.25688,0.87494 -14.3422,0.36027 -18.15077,-7.68577c-0.41174,-0.85779 -2.38465,-0.99503 -4.58058,-1.81851c-0.4632,3.84288 -0.85779,6.86229 -1.49255,12.16342c-6.02166,-4.56343 -10.89389,-8.28622 -15.78328,-12.00902l-2.2474,1.81851c3.38239,4.50043 6.52069,9.17925 9.40134,14.01624c1.97291,3.70564 4.11738,8.16613 3.79142,12.11195c-1.97291,23.24602 -4.59774,46.45773 -7.13679,69.66944c-0.5051,3.07197 -1.20418,6.1089 -2.093,9.09254c-7.82302,-6.14175 -10.17335,-14.73678 -6.86229,-19.93497c-2.41896,-2.31602 -4.73498,-4.25462 -6.70789,-6.50202q-6.57065,-7.46275 -12.78102,-15.21714c-1.65326,-1.84491 -2.9296,-3.99547 -3.75711,-6.33047c-4.11439,-15.76806 -11.79117,-30.38212 -22.4397,-42.71778c-6.46016,-6.93488 -9.65545,-16.29611 -8.78374,-25.7336c1.33815,-16.46951 1.57833,-33.0591 1.71557,-49.59723c0,-2.84785 -2.4018,-6.10744 -4.47765,-8.57787c-6.7422,-7.80586 -13.84468,-15.28576 -20.72413,-22.79997c3.51693,-11.25416 -6.22753,-27.74083 -17.34445,-30.36565l2.62483,13.72459c-14.94265,-5.74717 -15.95483,-19.54038 -20.31239,-31.37784c3.73995,4.82076 7.46275,9.65868 11.27132,14.58238c1.30384,-2.21309 1.99007,-4.99232 3.67133,-5.86726c5.26681,-2.77923 3.05372,-5.83295 0.13725,-7.72008c-5.14672,-3.43115 -11.04829,-5.78148 -16.50382,-8.80089c-3.68848,-2.04153 -7.18825,-4.44334 -10.7738,-6.69074l1.26952,-2.45327c0.99503,-0.18871 2.23025,-0.84063 2.9851,-0.48036c19.95212,9.74446 40.0758,18.64829 52.70242,38.90921c9.72377,15.4696 20.5605,30.21101 32.42434,44.1074c8.24837,9.41143 17.49206,17.90158 27.56927,25.32187c17.87628,13.72459 37.10786,25.7336 54.5724,39.9214c15.98915,12.98689 33.88258,19.06002 53.76608,21.80494c14.92549,2.07584 29.67942,5.42121 44.50198,8.26906c2.12731,0.39458 4.186,1.18375 6.86229,1.97291l-30.86317,51.65592zm143.37049,-229.26926c-10.99683,18.33948 -21.85641,36.79905 -32.39003,55.41303c-2.79638,4.94085 -6.4334,8.0632 -11.5115,5.95304c-4.68497,-1.89904 -8.74418,-5.07271 -11.71737,-9.16116c-2.07584,-3.10519 -1.23521,-8.16613 -2.47043,-9.93317l13.0212,11.58012c9.04107,-8.02888 14.53091,-14.20495 12.47222,-24.49839c-0.70339,-3.43115 1.3553,-7.4799 2.35034,-11.2027c1.47539,-5.42121 3.12234,-10.80811 4.70067,-16.21217l-2.28171,-0.92641l-8.73227,9.43565c0.80632,-5.30112 1.32099,-8.73227 1.71557,-11.6659l10.60224,-4.15169c-2.02438,-2.72776 -4.6492,-4.66636 -4.51196,-6.36478c0.75485,-9.52143 -3.07088,-10.51647 -10.51647,-6.57065c-1.0465,0.54898 -2.65914,0 -4.80361,0l6.50202,-8.95529l-13.57019,0c2.17878,-5.52415 2.17878,-5.52415 20.68982,-6.1246l-21.13587,-25.15031c1.08081,-1.52686 2.86501,-3.98013 5.14672,-7.18825c-2.96794,-1.13228 -5.66139,-2.88216 -8.47493,-3.1395c-18.4081,-1.71557 -29.35346,-13.98192 -38.92636,-27.60358c-4.82076,-6.86229 -10.07042,-10.20766 -18.33948,-9.16116c-2.77159,0.09647 -5.54609,-0.07013 -8.28622,-0.49752c3.51693,12.09479 6.98238,24.01803 10.43069,35.85549l1.61264,-0.4632l0.49752,-9.60721c9.7273,15.64603 14.75393,32.5959 33.14488,40.17873c-2.04153,7.84017 -4.58058,17.15574 -6.86229,26.71148c-1.18375,4.83792 -5.30112,10.53362 2.95079,13.36432c0.24018,0 0.60045,0.41174 0.5833,0.60045c-0.82348,15.19998 13.48441,21.17018 18.87131,33.12773c-12.19773,-9.55574 -24.58417,-18.87131 -36.49025,-28.78733c-3.25959,-2.72776 -3.67133,-6.51918 0.87494,-10.01895c2.45327,-1.88713 3.99729,-5.76433 4.61489,-9.00676c1.18375,-6.1246 0.92641,-12.54084 2.17878,-18.66544c1.32099,-6.53634 -1.28668,-10.29344 -7.20541,-10.99683c-15.30292,-1.71557 -21.27311,-11.21985 -24.32683,-25.25324c-6.1246,-28.13541 -13.24423,-56.06495 -30.6573,-80.01435c-1.67052,-2.64874 -2.5842,-5.70421 -2.64198,-8.8352c0.05886,-4.023 0.40862,-8.03647 1.0465,-12.00902l10.39638,6.00451l-0.27449,-0.29165c10.73949,5.14672 20.43248,11.42572 25.01306,23.05731c6.86229,17.53316 17.99637,32.37287 29.86814,46.62929c2.88988,2.97957 6.57651,5.0641 10.6194,6.00451c8.2176,2.26456 16.72684,3.43115 25.01306,5.3869c9.16116,2.26456 15.88621,7.75439 18.71691,17.00133c6.10744,19.91781 19.81488,35.18641 31.63518,51.46721c3.80857,5.33543 4.04875,9.33272 0.85779,14.68531z"/>
   <path stroke="null" id="svg_15" d="m666.91784,381.42473l0,-13.08983c-6.17606,0 -6.17606,0 -7.05101,12.90111l-46.818,0c3.63702,-6.86229 6.09029,-11.39141 9.38419,-17.55032l-11.90608,2.74492c3.10519,-10.70518 6.86229,-20.1923 8.44062,-30.02254c2.05869,-12.31782 6.50202,-24.32683 3.86004,-37.45097c-1.71557,-8.92098 1.0465,-10.75665 10.48215,-10.63656c0.66907,3.12234 0.75485,6.55349 2.31602,9.07538c0.51467,0.85779 4.76929,-0.60045 6.86229,-0.92641l0,-10.60224c2.96794,0.36027 5.98735,0.51467 8.88667,1.14943c6.26184,1.33815 12.47222,2.95079 19.11149,4.54627c-0.68623,4.44334 -1.71557,7.6343 -7.73724,7.61715c-3.43767,0.39244 -6.48924,2.38231 -8.23475,5.36975c-2.76207,6.05597 -4.06591,12.78102 -5.93588,19.18011c5.93588,-3.58555 11.54581,-12.00902 23.21171,-8.11466l-7.37697,11.18554c1.2009,5.60993 2.47043,11.49434 4.25462,19.83203l-8.11466,-6.72505l-3.84288,8.74943c15.97199,11.13407 28.44421,8.08035 36.61034,-9.22979l5.5413,11.25416l3.43115,0.77201c-5.71286,-14.58238 8.01173,-13.43294 12.38644,-21.20449l-10.56793,2.50474l-1.44108,-1.71557c3.32821,-2.65914 6.4334,-7.13679 10.01895,-7.56568c4.87223,-0.5833 11.42572,0.41174 14.90833,3.43115c5.98735,5.14672 10.1562,12.48938 15.5431,19.47176l-4.54627,3.00225c8.44062,4.9237 16.98418,9.55574 25.15031,14.78824s15.71465,10.9282 23.34896,16.29795c-3.68848,12.35213 -9.29841,21.37605 -18.78553,28.22119c-6.15891,4.42618 -11.30563,10.29344 -16.94987,15.44016c-2.66677,2.50438 -5.46117,4.86931 -8.372,7.08532c-8.38915,6.15891 -16.55529,6.5878 -24.46408,-1.13228c-6.24469,-6.09029 -13.55303,-4.51196 -22.09659,-2.04153l15.13136,7.72008c-5.14672,0.66907 -7.7887,1.13228 -10.43069,1.33815c-13.19276,0.99503 -24.97875,3.99729 -30.21125,18.39095c-0.56614,1.57833 -4.28893,2.48758 -6.69074,2.86501c-6.02166,0.94357 -9.50428,2.36749 -11.46003,9.91602s-9.1097,13.6045 -14.32504,20.79275c-12.54084,-15.64603 -11.27132,-37.46813 1.42393,-50.30062c0.75485,-0.77201 2.05869,-1.88713 2.72776,-1.71557c9.31556,2.96794 8.57787,-4.76929 10.05326,-9.62437c0.83274,-3.31915 1.3044,-6.71856 1.40677,-10.13904c0.65192,-8.23475 4.58058,-11.78599 13.20992,-11.52865c10.29344,0.29165 10.29344,-0.32596 8.57787,-10.60224c-1.9386,-10.63656 -1.9386,-10.63656 -8.92098,-13.72459zm19.90065,37.57106c9.76161,-7.61715 0.54898,-10.97967 -0.41174,-16.72684c-9.24694,6.57065 -1.09797,10.48215 0.41174,16.72684z"/>
   <path stroke="null" id="svg_16" d="m708.3661,313.31645l-15.44016,15.71465l6.26184,-24.18959l-22.30246,7.25688c2.91648,-10.13904 11.33994,-14.03339 24.3783,-13.05552l7.10247,14.27357z"/>
   <path stroke="null" id="svg_17" d="m618.05831,397.58543c-1.11512,-3.07088 -2.02438,-5.59277 -3.43115,-9.46997l15.06274,-2.47043c0.44605,1.01219 0.90925,2.02438 1.37246,3.03657l-13.00405,8.90383z"/>
   <path stroke="null" id="svg_18" d="m593.81725,844.0463c-8.8352,13.34716 -17.89343,16.77831 -31.20628,11.83746l31.20628,-11.83746z"/>
   <path stroke="null" id="svg_19" d="m398.99671,781.89107c-0.61761,-13.36432 -6.46771,-20.70697 -21.20449,-17.87628c0.42889,-1.2009 0.84063,-2.41896 1.26952,-3.63702c1.84009,0.32339 3.70799,0.46132 5.57561,0.41174c2.53905,-0.29165 5.02663,-1.08081 9.60721,-2.12731l7.59999,22.38824l-2.84785,0.84063z"/>
   <path stroke="null" id="svg_20" d="m746.86357,764.6324c-0.72854,-3.27175 -1.6334,-6.50175 -2.71061,-9.67584c-1.11217,-2.13707 -2.37936,-4.18981 -3.79142,-6.14175l11.11692,-4.56343c-16.26364,-3.22528 -17.72188,-12.14626 -12.91827,-24.36115l-6.96523,5.52415c-1.06366,-6.45056 -1.71557,-11.58012 -2.81354,-16.5896c-0.54898,-2.4018 -1.54402,-6.02166 -3.24243,-6.63927c-8.25191,-3.00225 -9.43565,-9.74446 -10.51647,-16.98418c-0.63476,-4.28893 1.52686,-9.60721 -5.62708,-11.73452c-1.83566,-0.54898 -2.04153,-7.75439 -2.36749,-12.00902c-0.77201,-9.76161 -1.16659,-19.52323 -1.71557,-29.302l2.45327,-0.85779c6.86229,5.36975 13.72459,10.75665 21.32458,16.744l6.65643,-3.20812c0,5.30112 -0.56614,9.50428 0.17156,13.4501c0.60045,3.19097 2.76207,6.07313 4.70067,10.08757l-4.52911,5.14672c3.25959,1.9386 5.9702,3.58555 8.73227,5.14672c6.75936,3.8772 11.09976,8.57787 7.46275,17.15574c-0.75485,1.71557 0.1544,4.3404 0.48036,6.50202c2.28171,15.59456 5.55846,31.13766 6.33047,46.80085c0.3088,4.54627 -6.87945,9.22979 -12.23204,15.50879z"/>
   <path stroke="null" id="svg_21" d="m244.20051,633.7856c-13.26138,5.14672 -22.02797,2.60767 -23.16024,-5.30112l-6.69074,2.21309l0,-9.38419c6.00451,-0.68623 12.76387,-3.43115 17.6361,-1.45824s7.80586,8.57787 12.21488,13.93046z"/>
   <path stroke="null" id="svg_22" d="m176.76131,625.17342l-27.24331,-4.54627c6.21038,-4.66636 20.7756,-2.62483 27.24331,4.54627z"/>
   <path stroke="null" id="svg_23" d="m542.2128,216.81544c-4.70067,-9.77877 -12.21488,-4.80361 -15.44016,-2.07584c-3.84288,3.2939 -4.58058,10.29344 -7.58284,15.57741c0.8921,-9.00676 1.71557,-18.01352 2.67629,-26.91735l-2.5562,-0.51467l-12.00902,-2.5562c1.59548,-3.96298 2.52189,-10.82527 4.88938,-11.37425c11.59728,-2.67629 10.29344,-12.00902 12.00902,-19.86634c0.34951,-1.70808 1.46208,-3.16199 3.01941,-3.94582c0.51467,4.82076 1.01219,9.62437 1.54402,14.77109l5.66139,0c4.51196,-17.03565 8.90383,-33.59093 13.27854,-50.14622l3.65417,0.97788c-1.45824,4.61489 -2.89932,9.21263 -4.54627,14.46229l9.55574,1.23521c-6.41625,1.85282 -12.16342,3.8772 -12.00902,12.52369c0.12009,6.22753 -3.77426,12.93542 3.31106,18.20224c0.97,-0.42136 1.91003,-0.90858 2.81354,-1.45824c8.25191,-5.50699 8.57787,-5.48984 12.50653,3.92866c3.19097,7.82302 6.00451,15.78328 8.98961,23.69207l3.12234,0.53183l4.08307,-13.08983c6.98238,5.14672 3.10519,12.38644 3.20812,18.30517c0,1.57833 -5.14672,3.70564 -8.2176,4.73498c-2.31602,0.77201 -5.14672,-0.12009 -7.6343,0.32596c-6.07313,1.09797 -7.6343,5.30112 -4.44334,10.12188l-6.48487,9.09254l11.68306,-2.07584c-1.88713,2.76207 -2.64198,5.14672 -3.72279,5.24966c-7.0167,1.08081 -13.43294,4.70067 -21.44467,1.45824c-3.73995,-1.5097 -10.49931,2.45327 -14.78824,5.48984c-1.49255,1.0465 1.14943,6.86229 0.44605,10.29344c-0.94357,4.51196 -3.32821,8.71511 -4.70067,12.00902l-14.20495,-6.51918c1.71557,-5.64424 3.6027,-11.78599 4.71783,-15.44016c5.73002,-2.00722 9.45281,-3.22528 13.12414,-4.59774c8.57787,-3.22528 17.15574,-6.50202 25.63067,-9.69299c0.87494,-5.55846 1.88713,-12.00902 3.12234,-19.86634c-2.57336,0.44605 -6.4334,0.1544 -8.88667,1.86998c-1.52686,1.08081 -0.80632,5.14672 -1.33815,7.90879c-0.39458,2.00722 -0.61761,4.80361 -1.9386,5.64424s-3.70564,-0.87494 -6.53634,-1.71557l5.43837,-6.55349z"/>
   <path stroke="null" id="svg_24" d="m564.73828,161.07645l-13.10698,6.4334c-0.37743,-8.44062 2.02438,-9.89886 12.18057,-8.74943l0.92641,2.31602z"/>
   <path stroke="null" id="svg_25" d="m874.48509,372.05769c2.69345,2.60767 5.50699,5.14672 8.04604,7.85733c2.48424,2.40007 4.64154,5.11689 6.41625,8.08035c2.33318,4.58058 -0.10293,11.03114 7.05101,14.13633c1.71557,0.75485 0.25734,8.95529 0.25734,15.21714c-6.22753,-7.06816 -11.2027,-11.80315 -15.06274,-17.32729c-4.26083,-6.50336 -8.16661,-13.23253 -11.70021,-20.15799c-3.15666,-5.79864 -0.13725,-7.56568 5.26681,-7.51421l-0.27449,-0.29165z"/>
  </g>
 </g>
</svg>